<svg xmlns="http://www.w3.org/2000/svg" viewBox="0 0 372.793 570.874">
  <defs>
    <style>
      .cls-1 {
        fill: #636569;
      }

      .cls-2 {
        fill: #0069a7;
      }
    </style>
  </defs>
  <g id="Layer_2" data-name="Layer 2">
    <g id="Layer_1-2" data-name="Layer 1">
      <g>
        <g>
          <path class="cls-1" d="M1.8,552.843H8.064c5.351,0,9.357,3.779,9.357,8.9,0,5.073-3.981,8.851-9.357,8.851H1.8Zm2.662,2.384v12.984H8.114a6.492,6.492,0,1,0,0-12.984Z"/>
          <path class="cls-1" d="M20.267,552.843H33.353v2.333H22.93V560.5h6.847v2.282H22.93v5.478H33.454V570.6H20.267Z"/>
          <path class="cls-1" d="M38.682,556.14V570.6H36.2V552.843h3.551l5.579,11.336,5.553-11.336h3.551V570.6H51.92V556.114L45.3,569.327Z"/>
          <path class="cls-1" d="M66.509,570.874a9.156,9.156,0,1,1,9.256-9.155A9.1,9.1,0,0,1,66.509,570.874Zm0-15.85a6.7,6.7,0,1,0,6.543,6.7A6.494,6.494,0,0,0,66.509,555.024Z"/>
          <path class="cls-1" d="M78.611,552.843h2.663v8.267l8.6-8.267h3.347l-9.155,8.572,9.46,9.18H89.871l-8.6-8.445V570.6H78.611Z"/>
          <path class="cls-1" d="M95.1,552.843h8.064c3.525,0,5.909,2.13,5.909,5.25a5.015,5.015,0,0,1-3.652,4.869l3.956,7.633h-2.941l-3.678-7.278h-5V570.6H95.1Zm2.662,2.333v5.934h5.174c2.079,0,3.449-1.191,3.449-2.967,0-1.8-1.37-2.967-3.449-2.967Z"/>
          <path class="cls-1" d="M117.649,552.843h3.119l7.253,17.752H125.13l-2.054-5.2h-7.938l-2.079,5.2H110.3Zm4.565,10.347L119.12,555.4l-3.094,7.786Z"/>
          <path class="cls-1" d="M130.384,565.777a8.572,8.572,0,0,0,6.112,2.789c2.561,0,4.311-1.217,4.311-2.967,0-1.572-1.014-2.358-3.6-2.79l-2.967-.481c-3.246-.533-4.844-2.054-4.844-4.616,0-3.094,2.587-5.1,6.543-5.1a11.907,11.907,0,0,1,7.151,2.409l-1.47,2.029a9.433,9.433,0,0,0-5.808-2.181c-2.308,0-3.854,1.065-3.854,2.637,0,1.446.887,2.131,3.17,2.511l2.865.456c3.754.609,5.452,2.156,5.452,4.92,0,3.272-2.84,5.453-7.075,5.453a10.7,10.7,0,0,1-7.608-3.2Z"/>
          <path class="cls-1" d="M145.732,548.988a1.522,1.522,0,0,1,3.043,0,1.5,1.5,0,0,1-1.522,1.5A1.488,1.488,0,0,1,145.732,548.988Zm.177,3.855h2.663V570.6h-2.663Z"/>
          <path class="cls-1" d="M155.726,552.843h2.866l6.01,15.115,6.112-15.115h2.739L166.1,570.6h-3.119Z"/>
          <path class="cls-1" d="M175.284,552.843h13.085v2.333H177.946V560.5h6.848v2.282h-6.848v5.478h10.525V570.6H175.284Z"/>
          <path class="cls-1" d="M202.1,552.843h3.119l7.253,17.752h-2.891l-2.054-5.2h-7.938l-2.08,5.2H194.74Zm4.565,10.347-3.094-7.786-3.094,7.786Z"/>
          <path class="cls-1" d="M209.58,552.843h15.14V555.2h-6.238V570.6h-2.663V555.2H209.58Z"/>
          <path class="cls-1" d="M226.956,552.843h2.663V570.6h-2.663Z"/>
          <path class="cls-1" d="M233.247,552.843h2.663v15.394h10.22V570.6H233.247Z"/>
          <path class="cls-1" d="M248.822,552.843h2.663V570.6h-2.663Z"/>
          <path class="cls-1" d="M257.6,556.14V570.6h-2.485V552.843h3.551l5.579,11.336,5.553-11.336h3.551V570.6h-2.511V556.114l-6.619,13.213Z"/>
          <path class="cls-1" d="M282.256,552.843h8.216c3.475,0,5.808,2.156,5.808,5.326,0,3.119-2.359,5.274-5.808,5.274h-5.553V570.6h-2.663Zm2.663,2.333v6.01h5.274c2.08,0,3.4-1.166,3.4-3.017,0-1.826-1.319-2.993-3.4-2.993Z"/>
          <path class="cls-1" d="M301.964,552.843h3.12l7.252,17.752h-2.891l-2.054-5.2h-7.937l-2.08,5.2H294.61Zm4.565,10.347-3.094-7.786-3.094,7.786Z"/>
          <path class="cls-1" d="M314.168,552.843h8.064c3.525,0,5.909,2.13,5.909,5.25a5.015,5.015,0,0,1-3.652,4.869l3.956,7.633H325.5l-3.677-7.278h-5V570.6h-2.662Zm2.662,2.333v5.934H322c2.08,0,3.45-1.191,3.45-2.967,0-1.8-1.37-2.967-3.45-2.967Z"/>
          <path class="cls-1" d="M329.084,552.843h15.14V555.2h-6.239V570.6h-2.663V555.2h-6.238Z"/>
          <path class="cls-1" d="M346.282,548.988a1.523,1.523,0,0,1,3.044,0,1.5,1.5,0,0,1-1.522,1.5A1.488,1.488,0,0,1,346.282,548.988Zm.178,3.855h2.663V570.6H346.46Z"/>
          <path class="cls-1" d="M352.776,565.777a8.569,8.569,0,0,0,6.111,2.789c2.562,0,4.312-1.217,4.312-2.967,0-1.572-1.015-2.358-3.6-2.79l-2.968-.481c-3.246-.533-4.843-2.054-4.843-4.616,0-3.094,2.587-5.1,6.543-5.1a11.907,11.907,0,0,1,7.151,2.409l-1.471,2.029a9.428,9.428,0,0,0-5.807-2.181c-2.308,0-3.855,1.065-3.855,2.637,0,1.446.887,2.131,3.17,2.511l2.866.456c3.753.609,5.452,2.156,5.452,4.92,0,3.272-2.84,5.453-7.075,5.453a10.692,10.692,0,0,1-7.608-3.2Z"/>
          <path class="cls-1" d="M368.123,548.988a1.522,1.522,0,0,1,3.043,0,1.5,1.5,0,0,1-1.522,1.5A1.488,1.488,0,0,1,368.123,548.988Zm.177,3.855h2.663V570.6H368.3Z"/>
        </g>
        <g>
          <path class="cls-1" d="M0,507.894H9.111V447.259H0V430.977H42.715c34.2,0,47.2,20.162,47.2,45.853,0,23.746-12.546,47.345-47.644,47.345H0Zm39.878,0c20.312,0,25.838-13.592,25.838-30.467,0-16.728-5.228-30.168-24.941-30.168H32.112v60.635Z"/>
          <path class="cls-1" d="M272.576,524.175V507.894h7.465l23.3-60.635h-9.26V430.977H336.2l29.272,76.917h7.321v16.281H331.869V507.894h9.41l-3.737-10.454H304.686L301.1,507.894h8.66v16.281Zm37.039-42.269h22.851l-5.677-16.577c-2.09-6.125-4.18-12.248-5.374-17.476h-.45a151.573,151.573,0,0,1-5.375,17.476Z"/>
          <g>
            <path class="cls-1" d="M172.207,494.6v29.574H98.874V507.894h9.111V447.259H98.874V430.977H171.76V459.2H153.089V447.259h-22.4v21.354h25.389V484.6H130.687v23.3h22.7V494.6Z"/>
            <path class="cls-1" d="M273.022,447.259,245.84,524.175H218.657l-26.138-76.916H184.6V430.977h41.673v16.282H216.269l12.245,39.726c2.091,6.72,4.332,14.786,5.08,18.52h.6c.745-3.734,3.134-11.949,5.076-18.52l12.1-39.726H241.357V430.977h39.878l0,16.282Z"/>
          </g>
        </g>
        <path class="cls-2" d="M311.149,226.277c-2.326-13.351-7.447-25.741-13.385-37.812-10.126-20.6-81.125-126.643-102.433-168.595C192.008,13.333,188.676,6.792,185.223,0c-3.045,6-5.845,11.825-8.9,17.512-16.2,30.136-78.8,126.428-93.569,151.857-7.9,13.6-15.109,27.619-19.828,42.692-6.965,22.191-7.437,44.872-3.4,67.578,5.33,29.928,19.892,54.912,43.173,74.313,21.443,17.86,45.151,28.029,70.752,30.088l3.769-106.725-.343-.344a72.329,72.329,0,0,1-67.194-72.131v0h0a72.337,72.337,0,0,1,72.248,68.955l.087.086-.082.082c.022.5.027,1.011.038,1.519l.044.043,1.412,40.846a78.635,78.635,0,0,1,77.116-63.345h0a78.607,78.607,0,0,1-75.442,78.532L184,332.67l1.788,51.711,2.847-.039a137.561,137.561,0,0,0,22.441-2.873c44.02-9.292,74.732-35.678,92.621-76.9a119.339,119.339,0,0,0,9.391-43.053A165.763,165.763,0,0,0,311.149,226.277Z"/>
      </g>
    </g>
  </g>
</svg>
