<svg xmlns="http://www.w3.org/2000/svg" viewBox="0 0 356 500" width="356" height="500"><defs><clipPath clipPathUnits="userSpaceOnUse" id="cp1"><path d="M-389 -317L745 -317L745 817L-389 817Z" /></clipPath><radialGradient id="grd1" gradientUnits="userSpaceOnUse"  cx="177.929" cy="180.084" r="178.283"><stop offset="0" stop-color="#2ea836"  /><stop offset="0.884" stop-color="#00574a"  /><stop offset="1" stop-color="#00574a"  /></radialGradient></defs><style>tspan { white-space:pre }.shp0 { fill: url(#grd1) } .shp1 { fill: #00574a } </style><g clip-path="url(#cp1)"><path class="shp0" d="M177.93 0.4C177.11 -0.04 175.92 0.27 175.65 1.38C172.66 13.24 164.25 33.66 141.78 32.4C140.31 32.31 139.13 33.59 139.36 35.05C140.62 43.29 143.16 66.41 132.84 71.92C123.38 76.98 113.24 78.14 106.39 78.01C104.43 77.97 103.39 80.3 104.71 81.75C110.95 88.6 122.72 102.15 125.41 109.85C128.58 118.96 139.27 136.39 120.12 142.26C106.55 146.42 79.2 126.7 65.83 92.13C65.33 90.84 63.44 91.09 63.29 92.47C61.89 105.9 53.49 132.67 6.73 109.39C5.58 108.82 4.37 110.06 4.98 111.19C10.24 120.94 21.34 146.7 0.9 160.81C-0.05 161.47 0.26 162.96 1.4 163.18C16.01 166.03 71.97 178.79 29.62 199.8C28.39 200.42 28.81 202.27 30.19 202.3C42.51 202.52 70.85 203.66 81.7 209.51C101.03 219.93 90.09 230.77 43.82 227.34C42.72 227.26 42.01 228.47 42.62 229.38C46.66 235.37 54.17 252.43 26.83 271.56C25.68 272.37 26.42 274.17 27.81 273.94C43.68 271.24 81.08 267.6 60.93 298.02C60.32 298.93 61.02 300.14 62.11 300.07C69.85 299.53 90.8 300.52 89.52 327.33C89.46 328.61 91.07 329.22 91.86 328.22C98.31 320.08 115.39 301.4 135.65 302.29C135.72 302.29 135.78 302.3 135.85 302.31C137.31 302.59 152.54 305.81 163.69 301.94C186.79 268.06 193.97 227.41 186.2 189.53C206.07 240.88 193.82 300.96 157.05 346.94C155.45 348.95 153.79 350.9 152.11 352.81L172.82 359.71C184.7 341.99 192.8 322.85 197.3 303.22C207.51 304.92 218.76 302.55 220.01 302.31C220.07 302.3 220.14 302.29 220.21 302.29C240.47 301.4 257.55 320.08 263.99 328.22C264.79 329.22 266.4 328.61 266.34 327.33C265.06 300.52 286.01 299.53 293.75 300.07C294.84 300.14 295.53 298.93 294.93 298.02C274.78 267.6 312.18 271.24 328.05 273.94C329.44 274.17 330.18 272.37 329.03 271.56C301.68 252.43 309.2 235.37 313.24 229.38C313.85 228.47 313.14 227.26 312.04 227.34C265.77 230.77 254.83 219.93 274.15 209.51C285.01 203.66 313.35 202.52 325.67 202.3C327.05 202.27 327.47 200.42 326.23 199.8C283.89 178.79 339.85 166.03 354.46 163.18C355.6 162.96 355.91 161.47 354.95 160.81C334.52 146.7 345.61 120.94 350.88 111.19C351.48 110.06 350.28 108.82 349.13 109.39C302.37 132.67 293.96 105.9 292.56 92.47C292.42 91.09 290.53 90.84 290.03 92.13C276.66 126.7 249.31 146.42 235.74 142.26C216.59 136.39 227.28 118.96 230.45 109.85C233.13 102.15 244.9 88.6 251.15 81.75C252.47 80.3 251.42 77.97 249.47 78.01C242.62 78.14 232.48 76.98 223.02 71.92C212.7 66.41 215.23 43.29 216.5 35.05C216.73 33.59 215.55 32.31 214.08 32.4C191.61 33.66 183.19 13.24 180.21 1.38C180.01 0.6 179.36 0.21 178.71 0.21C178.44 0.21 178.17 0.28 177.93 0.4Z" /><path fill-rule="evenodd" class="shp1" d="M174.86 489.04C177.44 492.5 179.97 495.88 182.58 499.38L178.54 499.38C177.54 499.38 176.53 499.36 175.53 499.39C175.07 499.41 174.82 499.24 174.56 498.87C172.61 496.07 170.62 493.29 168.66 490.5C168.41 490.15 168.16 490.01 167.73 490.01C165.53 490.03 163.33 490.02 161.06 490.02L161.06 499.33L154.77 499.33L154.77 469.59C154.98 469.58 155.17 469.56 155.36 469.56C160.26 469.56 165.16 469.56 170.06 469.56C171.83 469.56 173.56 469.82 175.21 470.5C178.09 471.69 179.99 473.76 180.67 476.83C181.38 479.99 181.02 482.99 179.13 485.71C178.21 487.04 176.97 488 175.54 488.72C175.34 488.82 175.14 488.91 174.86 489.04ZM172.02 475.63C171.13 475.33 170.15 475.2 169.21 475.17C166.92 475.11 164.62 475.15 162.33 475.15L161.06 475.15L161.06 484.35C161.14 484.39 161.17 484.43 161.21 484.43C164.26 484.4 167.32 484.46 170.36 484.3C172.72 484.18 174.19 482.68 174.46 480.33C174.72 478.11 174.05 476.29 172.02 475.63ZM151.49 498.8C151.56 498.96 151.62 499.12 151.72 499.38C149.47 499.38 147.33 499.39 145.2 499.36C145.02 499.36 144.77 499.1 144.68 498.91C144.06 497.54 143.46 496.16 142.88 494.77C142.72 494.36 142.52 494.19 142.06 494.2C137.52 494.22 127.88 494.2 127.88 494.2C127.88 494.2 126.44 497.53 125.83 498.9C125.74 499.09 125.52 499.36 125.37 499.36C123.19 499.39 121.02 499.38 118.75 499.38C119.31 498.14 119.84 496.98 120.37 495.82C124.28 487.26 128.19 478.71 132.08 470.15C132.3 469.66 132.55 469.51 133.07 469.52C134.58 469.56 136.1 469.55 137.61 469.53C138.03 469.52 138.24 469.66 138.41 470.04C142.76 479.63 147.13 489.22 151.49 498.8ZM140.32 488.8C138.62 484.79 136.94 480.85 135.25 476.86C133.54 480.87 131.87 484.8 130.17 488.8L140.32 488.8Z" /><path fill-rule="evenodd" class="shp1" d="M118.88 485.41C117.1 488.31 114.41 489.94 111.09 490.28C108.33 490.57 105.53 490.45 102.75 490.51C102.47 490.51 102.19 490.51 101.85 490.51L101.85 499.33L95.57 499.33L95.57 469.56L98.49 469.56C102.19 469.56 105.88 469.55 109.58 469.56C111.63 469.57 113.6 469.94 115.43 470.92C117.88 472.25 119.37 474.32 119.98 477C120.66 479.93 120.49 482.78 118.88 485.41ZM113.7 478.61C113.47 476.88 112.46 475.76 110.74 475.35C110.27 475.24 109.77 475.16 109.29 475.16C106.98 475.14 104.66 475.15 102.35 475.15C102.18 475.15 102.01 475.18 101.84 475.2L101.84 484.99C104.61 484.99 107.32 485.12 110.02 484.95C111.96 484.84 113.4 483.3 113.69 481.38C113.83 480.47 113.81 479.52 113.7 478.61ZM249.47 489.11C250.07 493.18 248.03 496.88 244.25 498.59C241.46 499.85 238.52 500.11 235.51 499.83C231.89 499.51 228.53 498.4 225.44 496.47C225.29 496.38 225.15 496.27 224.94 496.13C225.85 494.47 226.73 492.86 227.66 491.18C227.91 491.32 228.14 491.44 228.37 491.56C230.83 492.94 233.41 493.97 236.24 494.26C237.93 494.43 239.58 494.3 241.15 493.63C242.55 493.02 243.16 491.97 242.96 490.65C242.84 489.84 242.39 489.19 241.68 488.88C240.27 488.28 238.8 487.76 237.34 487.27C235.21 486.58 233.03 486.04 230.94 485.25C229.09 484.55 227.58 483.32 226.77 481.44C225.15 477.69 226.26 472.63 231.25 470.37C233.44 469.38 235.76 469.03 238.13 469.04C241.43 469.07 244.55 469.87 247.46 471.44C247.59 471.51 247.72 471.59 247.92 471.71C247.1 473.34 246.29 474.95 245.47 476.59C244.63 476.25 243.82 475.89 243 475.6C240.86 474.84 238.67 474.35 236.4 474.63C235.51 474.74 234.59 474.98 233.82 475.41C231.99 476.44 231.93 478.77 233.76 479.78C235 480.47 236.42 480.84 237.79 481.27C240.07 481.97 242.43 482.47 244.66 483.32C247.29 484.31 249.04 486.21 249.47 489.11ZM184.44 469.6L208.92 469.6L208.92 475.16L199.81 475.16L199.81 499.33L193.5 499.33L193.5 475.17L184.44 475.17L184.44 469.6ZM214.13 469.61L220.34 469.61L220.34 475.34L214.13 478.17L214.13 469.61ZM214.13 478.17L220.34 478.17L220.34 499.36L214.13 499.36L214.13 478.17ZM260.28 469.61L260.28 475.34L254.07 478.17L254.07 469.61L260.28 469.61ZM254.07 478.17L260.28 478.17L260.28 499.36L254.07 499.36L254.07 478.17ZM63.51 423.15C63.51 429.74 63.5 436.34 63.52 442.93C63.53 443.66 63.34 444.12 62.71 444.56C57.37 448.31 51.44 450.37 44.92 450.9C38.6 451.42 32.61 450.41 27.15 447.14C20 442.86 15.95 436.52 15.16 428.24C13.85 414.44 22.56 403.15 36.28 400.72C43.5 399.44 50.47 400.03 56.99 403.61C58.54 404.46 59.94 405.62 61.53 406.72C59.5 409.34 57.67 411.72 55.93 413.97C53.79 412.86 51.81 411.52 49.64 410.77C44.39 408.95 39.08 409.09 33.97 411.38C30.39 412.99 27.97 415.79 26.74 419.52C25.35 423.68 25.4 427.89 26.9 432C28.58 436.57 31.87 439.59 36.55 440.87C42.09 442.38 47.51 441.87 52.7 439.27C53.52 438.85 53.85 438.35 53.81 437.41C53.74 435.36 53.79 433.31 53.79 431.12L41.07 431.12L41.07 421.96L63.45 421.96C63.47 422.37 63.51 422.76 63.51 423.15ZM340.82 450.19L334.74 450.19C332.72 450.19 330.69 450.24 328.68 450.16C328.14 450.14 327.45 449.87 327.1 449.48C321.82 443.53 316.57 437.55 311.37 431.52C310.53 430.55 309.73 429.99 308.41 430.15C307.47 430.26 306.5 430.17 305.42 430.17L305.42 450.12L295.05 450.12L295.05 401.04L305.35 401.04L305.35 420.95C306.94 420.95 308.4 420.99 309.86 420.92C310.18 420.9 310.55 420.56 310.79 420.28C315.9 414.27 321.02 408.27 326.08 402.23C326.85 401.3 327.62 400.89 328.85 400.92C332.34 401.01 335.83 400.95 339.62 400.95C332.47 409.11 325.5 417.06 318.56 424.98C325.84 433.22 333.24 441.6 340.82 450.19ZM238.72 435.15C240.84 437.45 242.9 439.68 245.12 442.09C243.86 443.21 242.68 444.4 241.35 445.39C235.48 449.75 228.84 451.48 221.57 450.92C215.47 450.46 210 448.39 205.35 444.37C200.35 440.05 197.55 434.58 196.95 428.01C196.27 420.55 198.3 413.96 203.42 408.42C207.42 404.1 212.47 401.61 218.23 400.61C225.48 399.34 232.42 400.32 238.81 404.12C240.71 405.25 242.38 406.76 244.06 408.02C241.68 410.6 239.47 412.98 237.39 415.23C235.3 413.84 233.55 412.43 231.6 411.41C224.97 407.94 216.05 409.51 211.3 414.91C208.27 418.36 207.23 422.52 207.67 426.97C208.44 434.61 213.04 439.65 220.54 441.1C227.03 442.35 232.73 440.56 237.62 436.14C237.94 435.85 238.27 435.55 238.72 435.15ZM124.96 440.41L149.49 440.41L149.49 449.59L114.68 449.59L114.68 400.47L124.96 400.47L124.96 440.41Z" /><path fill-rule="evenodd" class="shp1" d="M81.1 440.92L109.59 440.92L109.59 450.16L70.75 450.16L70.75 401.02L109.39 401.02L109.39 410.14L81.11 410.14C81.11 413.62 81.1 429.53 81.1 429.53L81.1 440.92ZM106.99 429.53L81.1 429.53L83.88 420.52L106.99 420.52L106.99 429.53ZM164.12 440.92L192.61 440.92L192.61 450.16L153.77 450.16L153.77 401.02L192.41 401.02L192.41 410.14L164.13 410.14C164.13 413.62 164.12 429.53 164.12 429.53L164.12 440.92ZM190.01 429.53L164.12 429.53L166.9 420.52L190.01 420.52L190.01 429.53ZM260.53 440.92L289.02 440.92L289.02 450.16L250.18 450.16L250.18 401.02L288.82 401.02L288.82 410.14L260.55 410.14C260.55 413.62 260.53 429.53 260.53 429.53L260.53 440.92ZM286.43 429.53L260.53 429.53L263.32 420.52L286.43 420.52L286.43 429.53Z" /></g></svg>