<svg xmlns="http://www.w3.org/2000/svg" viewBox="0 0 729.89 387.38"><defs><style>.cls-1{fill:#ffda00;}.cls-2{fill:#54565a;}.cls-3{fill:#898a8d;}</style></defs><g id="Layer_2" data-name="Layer 2"><g id="katman_1" data-name="katman 1"><path class="cls-1" d="M261.63,125.9a96.07,96.07,0,1,0,28.14,67.93A95.45,95.45,0,0,0,261.63,125.9Z"/><path class="cls-1" d="M193.69,74.81a15,15,0,0,0,15-15V15a15,15,0,0,0-29.94,0V59.84A15,15,0,0,0,193.69,74.81Z"/><path class="cls-1" d="M193.69,312.57a15,15,0,0,0-15,15v44.87a15,15,0,0,0,29.94,0V327.54A15,15,0,0,0,193.69,312.57Z"/><path class="cls-1" d="M372.41,178.86H327.54a15,15,0,0,0,0,29.94h44.87a15,15,0,0,0,0-29.94Z"/><path class="cls-1" d="M74.81,193.83a15,15,0,0,0-15-15H15a15,15,0,0,0,0,29.94H59.84A15,15,0,0,0,74.81,193.83Z"/><path class="cls-1" d="M299.08,277.89a15,15,0,0,0-21.17,21.17l31.73,31.73a15,15,0,1,0,21.17-21.16Z"/><path class="cls-1" d="M88.62,109.77a15,15,0,0,0,21.17,0h0a15,15,0,0,0,0-21.17L78.06,56.87A15,15,0,1,0,56.89,78Z"/><path class="cls-1" d="M109.54,278.38a15,15,0,0,0-21.17,0L56.64,310.12A15,15,0,0,0,77.8,331.28l31.74-31.73a15,15,0,0,0,0-21.17Z"/><path class="cls-1" d="M298.83,110.26l31.73-31.73a15,15,0,0,0,0-21.17h0a15,15,0,0,0-21.17,0L277.66,89.1a15,15,0,1,0,21.17,21.16Z"/><path class="cls-2" d="M493.15,34A18,18,0,0,0,475.09,52a18.06,18.06,0,1,0,36.12,0A18,18,0,0,0,493.15,34Z"/><path class="cls-2" d="M493.15,81.56A14.72,14.72,0,0,0,482.35,86,14.9,14.9,0,0,0,477.88,97V246.91a14.9,14.9,0,0,0,4.47,10.94,15.25,15.25,0,0,0,21.59,0,15.41,15.41,0,0,0,4.63-10.94V97A15.41,15.41,0,0,0,503.94,86,14.68,14.68,0,0,0,493.15,81.56Z"/><path class="cls-2" d="M711.82,70.08A18,18,0,0,0,729.89,52a18.07,18.07,0,1,0-36.13,0,18,18,0,0,0,18.06,18.06Z"/><path class="cls-2" d="M711.82,81.56A14.68,14.68,0,0,0,701,86,14.87,14.87,0,0,0,696.55,97V246.91A14.87,14.87,0,0,0,701,257.85a15.25,15.25,0,0,0,21.59,0,15.4,15.4,0,0,0,4.62-10.94V97A15.4,15.4,0,0,0,722.62,86,14.72,14.72,0,0,0,711.82,81.56Z"/><path class="cls-2" d="M661.34,81.53a15.42,15.42,0,0,0-11,4.47l-46.87,51.41L556.6,86a15.42,15.42,0,0,0-11-4.47A15.26,15.26,0,0,0,530.32,96.8a14.9,14.9,0,0,0,4.57,10.9l53.23,57.77v81.44a14.87,14.87,0,0,0,4.48,10.94,15.23,15.23,0,0,0,21.58,0,15.41,15.41,0,0,0,4.63-10.94V165.47L672,107.7a14.9,14.9,0,0,0,4.57-10.9,15.26,15.26,0,0,0-15.27-15.27Z"/><path class="cls-3" d="M552.3,287a2.72,2.72,0,0,0-.68-1,2.87,2.87,0,0,0-2-.72,2.76,2.76,0,0,0-1.92.72,2.72,2.72,0,0,0-.72,1l-19,44.83a2.41,2.41,0,0,0,.56,2.84,2.78,2.78,0,0,0,1.94.74,2.87,2.87,0,0,0,2-.72,3,3,0,0,0,.58-.82l6.81-16h19.64l6.81,16a2.62,2.62,0,0,0,.62.82,2.72,2.72,0,0,0,1.91.72,2.8,2.8,0,0,0,1.94-.74,2.41,2.41,0,0,0,.56-2.84ZM542,312.84l7.7-18.15,7.7,18.15Z"/><path class="cls-3" d="M619.41,314a16.35,16.35,0,0,0,4.83-3.1,14.18,14.18,0,0,0,0-21.27,16.59,16.59,0,0,0-11.62-4.41H598.91A2.77,2.77,0,0,0,597,286a2.3,2.3,0,0,0-.8,1.77v45.15a2.3,2.3,0,0,0,.8,1.77,2.9,2.9,0,0,0,3.87,0,2.33,2.33,0,0,0,.8-1.77V315.35h11q.61,0,1.2,0l12.83,18.81a2.84,2.84,0,0,0,2.4,1.29,2.77,2.77,0,0,0,1.93-.74,2.3,2.3,0,0,0,.8-1.77,2.23,2.23,0,0,0-.44-1.38Zm-6.81-3.7h-11V290.27h11a11.08,11.08,0,0,1,7.75,2.93,9.48,9.48,0,0,1,0,14.2A11,11,0,0,1,612.6,310.33Z"/><path class="cls-3" d="M691.92,285.25H656.34a2.78,2.78,0,0,0-1.94.74,2.36,2.36,0,0,0,0,3.54,2.78,2.78,0,0,0,1.94.74h15v42.64a2.31,2.31,0,0,0,.81,1.77,2.89,2.89,0,0,0,3.86,0,2.31,2.31,0,0,0,.81-1.77V290.27h15a2.78,2.78,0,0,0,1.94-.74,2.36,2.36,0,0,0,0-3.54A2.78,2.78,0,0,0,691.92,285.25Z"/><path class="cls-3" d="M724.74,285.25a2.76,2.76,0,0,0-1.93.74,2.3,2.3,0,0,0-.8,1.77v45.15a2.3,2.3,0,0,0,.8,1.77,2.9,2.9,0,0,0,3.87,0,2.33,2.33,0,0,0,.8-1.77V287.76a2.33,2.33,0,0,0-.8-1.77A2.78,2.78,0,0,0,724.74,285.25Z"/><path class="cls-3" d="M727.65,275a4.4,4.4,0,0,0-5.82,0,3.58,3.58,0,0,0,0,5.33,4.4,4.4,0,0,0,5.82,0,3.56,3.56,0,0,0,0-5.33Z"/><path class="cls-3" d="M504.14,290a18,18,0,0,0-12.58-4.78H480.61a2.77,2.77,0,0,0-1.93.74,2.3,2.3,0,0,0-.8,1.77v45.15a2.3,2.3,0,0,0,.8,1.77,2.9,2.9,0,0,0,3.87,0,2.33,2.33,0,0,0,.8-1.77V290.27h8.21a12.42,12.42,0,0,1,8.71,3.31,10.62,10.62,0,0,1,0,16,12.46,12.46,0,0,1-8.71,3.3H486v5h5.56a18,18,0,0,0,12.58-4.78,15.33,15.33,0,0,0,0-23.05Z"/><rect class="cls-2" x="417.33" y="1.32" width="1.75" height="385.46"/></g></g></svg>