<?xml version="1.0" encoding="UTF-8" standalone="no"?>
<svg xmlns="http://www.w3.org/2000/svg" xmlns:cc="http://creativecommons.org/ns#" xmlns:dc="http://purl.org/dc/elements/1.1/" xmlns:rdf="http://www.w3.org/1999/02/22-rdf-syntax-ns#" width="276.42172" height="56.614666" viewBox="0 0 276.42172 56.614665">
  <metadata>
    <rdf:RDF>
      <cc:Work>
        <dc:format>
          image/svg+xml
        </dc:format>
        <dc:type rdf:resource="http://purl.org/dc/dcmitype/StillImage"/>
        <dc:title>
          Saadet Partisi Logo
        </dc:title>
      </cc:Work>
    </rdf:RDF>
  </metadata>
  <defs>
    <clipPath id="a">
      <path d="M0 841.89h595.276V0H0z"/>
    </clipPath>
  </defs>
  <g>
    <g>
      <g clip-path="url(#a)" transform="matrix(1.33333 0 0 -1.33333 -257.84666 716.93198)">
        <g>
          <path fill="#fff" d="M260.459 327.7013c-1.887 0-3.738.325-5.555.974-1.817.647-3.467 1.644-4.954 2.99l3.22 3.856c1.133-.92 2.294-1.65 3.485-2.193 1.192-.544 2.495-.815 3.91-.815 1.133 0 2.011.207 2.636.62.625.413.939.984.939 1.716v.071c0 .353-.066.667-.196.937-.131.272-.379.526-.745.761-.367.236-.876.472-1.525.708-.652.235-1.496.483-2.537.743-1.254.307-2.389.649-3.407 1.027-1.017.376-1.879.842-2.589 1.397s-1.26 1.244-1.65 2.069c-.39.827-.586 1.853-.586 3.079v.071c0 1.133.211 2.152.633 3.061.422.907 1.014 1.693 1.775 2.353.762.66 1.671 1.168 2.729 1.521 1.058.355 2.224.532 3.497.532 1.816 0 3.485-.273 5.007-.815 1.521-.543 2.92-1.32 4.193-2.336l-2.831-4.103c-1.108.755-2.193 1.349-3.255 1.787-1.061.435-2.123.653-3.184.653-1.062 0-1.858-.206-2.389-.618-.53-.413-.796-.927-.796-1.539v-.071c0-.402.077-.749.231-1.043.153-.296.43-.562.833-.796.402-.238.952-.461 1.65-.673.697-.212 1.578-.46 2.644-.743 1.253-.331 2.37-.702 3.352-1.116.982-.412 1.809-.908 2.484-1.486.673-.577 1.182-1.256 1.525-2.033.343-.779.515-1.711.515-2.797v-.069c0-1.228-.223-2.319-.668-3.275-.446-.955-1.067-1.757-1.864-2.406-.797-.648-1.748-1.144-2.852-1.485-1.106-.342-2.33-.514-3.675-.514"/>
        </g>
        <g>
          <path fill="#fff" d="M285.8301 338.424l-3.291 8.031-3.291-8.031zm-5.732 14.577h5.024l10.615-24.945h-5.697l-2.265 5.556h-10.473l-2.264-5.556h-5.556z"/>
        </g>
        <g>
          <path fill="#fff" d="M311.1289 338.424l-3.291 8.031-3.29-8.031zm-5.73 14.577h5.023l10.614-24.945h-5.696l-2.265 5.556h-10.473l-2.265-5.556h-5.556z"/>
        </g>
        <g>
          <path fill="#fff" d="M346.7627 352.8243h18.647v-4.848h-13.268v-5.023h11.677v-4.849h-11.677v-5.202h13.445v-4.847h-18.824z"/>
        </g>
        <g>
          <path fill="#fff" d="M375.1396 347.7999h-7.537v5.025h20.523v-5.025h-7.537v-19.745h-5.449z"/>
        </g>
        <g>
          <path fill="#fff" d="M338.8721 340.3693c0-1.108-.183-2.11-.548-3.008-.366-.897-.873-1.675-1.521-2.335-.65-.661-1.434-1.168-2.354-1.522-.92-.353-1.933-.531-3.043-.531h-4.21v14.933h4.21c1.11 0 2.123-.183 3.043-.548.92-.366 1.704-.88 2.354-1.54.648-.661 1.155-1.45 1.521-2.37.365-.92.548-1.923.548-3.008zm4.742 5.007c-.638 1.497-1.539 2.801-2.708 3.91-1.167 1.108-2.558 1.976-4.175 2.602-1.616.625-3.39.936-5.325.936h-9.66v-17.57c.506-7.27 7.233-7.198 7.233-7.198h2.427c1.935 0 3.709.317 5.325.955 1.617.636 3.008 1.509 4.175 2.618 1.169 1.109 2.07 2.418 2.708 3.928.637 1.509.955 3.137.955 4.883v.072c0 1.745-.318 3.366-.955 4.864"/>
        </g>
        <path fill="#fff" d="M207.09 322.718h35.444v35.444H207.09zm37.266-1.82h-39.087v39.086h39.087z"/>
        <g>
          <path fill="#fff" d="M228.4258 342.8029l.805-.864 1.053.513-.556-1.046.803-.865-1.148.217-.558-1.047-.152 1.181-1.148.218 1.053.512zm3.649-7.379c-1.168-4.29-5.059-7.443-9.68-7.443-5.544 0-10.04 4.538-10.04 10.135 0 4.92 3.477 9.023 8.087 9.94-2.531-1.557-4.225-4.4-4.225-7.652 0-4.921 3.882-8.913 8.669-8.913 2.992 0 5.632 1.561 7.189 3.933m-5.217 16.084l1.276-1.34 1.646.823-.857-1.651 1.276-1.341-1.805.321-.856-1.653-.259 1.849-1.805.32 1.644.823zm-1.724-5.221l.923-1.005 1.224.583-.654-1.206.923-1.006-1.327.26-.653-1.205-.166 1.367-1.328.262 1.225.583zm9.594 6.613l.354-2.231 2.191-.345-1.972-1.033.355-2.23-1.573 1.592-1.969-1.034.999 2.017-1.574 1.591 2.191-.345zm-2.144-7.522l1.089-1.105 1.367.714-.694-1.397 1.088-1.105-1.517.241-.694-1.397-.244 1.547-1.518.241 1.367.714z"/>
        </g>
        <g>
          <path fill="#d13c42" d="M255.2324 501.9542c-2.15 0-4.261.37-6.33 1.109-2.07.738-3.951 1.875-5.645 3.407l3.669 4.395c1.29-1.049 2.615-1.882 3.972-2.501 1.356-.618 2.843-.927 4.455-.927 1.29 0 2.291.235 3.004.705.712.471 1.068 1.123 1.068 1.956v.081c0 .403-.074.759-.222 1.068-.149.309-.432.598-.849.867-.418.269-.998.538-1.738.807-.741.268-1.705.55-2.891.847-1.429.348-2.722.738-3.882 1.169-1.159.429-2.141.961-2.95 1.592-.808.631-1.435 1.418-1.88 2.359-.444.94-.667 2.11-.667 3.507v.081c0 1.29.24 2.452.721 3.488.48 1.034 1.155 1.928 2.022 2.681.869.752 1.906 1.33 3.11 1.733 1.205.404 2.533.605 3.985.605 2.069 0 3.971-.309 5.705-.927 1.734-.619 3.326-1.506 4.778-2.661l-3.226-4.677c-1.264.86-2.5 1.539-3.709 2.036-1.21.497-2.419.746-3.629.746s-2.116-.236-2.722-.706c-.604-.47-.907-1.055-.907-1.754v-.08c0-.457.088-.854.264-1.189.175-.337.49-.639.949-.907.458-.269 1.085-.525 1.88-.767.795-.242 1.799-.524 3.012-.846 1.428-.377 2.702-.8 3.82-1.27 1.118-.471 2.062-1.035 2.83-1.694.768-.659 1.348-1.431 1.738-2.318.39-.887.586-1.949.586-3.185v-.081c0-1.398-.253-2.641-.76-3.729-.508-1.089-1.215-2.003-2.124-2.742-.908-.74-1.992-1.304-3.25-1.694-1.259-.389-2.655-.584-4.187-.584"/>
        </g>
        <g>
          <path fill="#d13c42" d="M284.1406 514.171l-3.749 9.152-3.75-9.152zm-6.531 16.611h5.724l12.096-28.425h-6.491l-2.58 6.331h-11.935l-2.58-6.331h-6.33z"/>
        </g>
        <g>
          <path fill="#d13c42" d="M312.9678 514.171l-3.749 9.152-3.75-9.152zm-6.531 16.611h5.725l12.095-28.425h-6.491l-2.58 6.331h-11.935l-2.58-6.331h-6.33z"/>
        </g>
        <g>
          <path fill="#d13c42" d="M353.5703 530.5802h21.248v-5.524h-15.119v-5.725h13.305v-5.524h-13.305v-5.927h15.32v-5.523h-21.449z"/>
        </g>
        <g>
          <path fill="#d13c42" d="M385.9043 524.8551h-8.588v5.725h23.385v-5.725h-8.588v-22.498h-6.209z"/>
        </g>
        <g>
          <path fill="#d13c42" d="M344.5801 516.3883c0-1.264-.209-2.406-.625-3.427-.417-1.022-.995-1.909-1.732-2.661-.742-.753-1.635-1.331-2.683-1.734-1.048-.403-2.204-.605-3.468-.605h-4.797v17.014h4.797c1.264 0 2.42-.208 3.468-.624 1.048-.417 1.941-1.002 2.683-1.754.737-.753 1.315-1.653 1.732-2.701.416-1.048.625-2.191.625-3.427zm5.402 5.705c-.725 1.706-1.754 3.191-3.085 4.455-1.33 1.263-2.916 2.251-4.755 2.964-1.843.712-3.866 1.068-6.07 1.068h-11.007v-20.02c.578-8.284 8.244-8.203 8.244-8.203h2.763c2.204 0 4.227.363 6.07 1.088 1.839.726 3.425 1.721 4.755 2.984 1.331 1.264 2.36 2.755 3.085 4.476.726 1.72 1.089 3.574 1.089 5.564v.08c0 1.989-.363 3.837-1.089 5.544"/>
        </g>
        <path fill="#d13c42" d="M235.847 495.238h-42.462v42.461h42.462z"/>
        <g>
          <path fill="#fff" d="M218.7324 519.1613l.916-.985 1.202.585-.635-1.193.915-.984-1.308.247-.635-1.193-.174 1.345-1.308.248 1.2.585zm4.158-8.408c-1.331-4.888-5.765-8.481-11.031-8.481-6.317 0-11.44 5.172-11.44 11.547 0 5.607 3.962 10.282 9.215 11.328-2.882-1.774-4.814-5.015-4.814-8.72 0-5.608 4.424-10.155 9.879-10.155 3.409 0 6.417 1.778 8.191 4.481m-5.945 18.327l1.454-1.527 1.875.938-.976-1.882 1.455-1.527-2.058.364-.975-1.883-.296 2.107-2.056.365 1.874.938zm-1.964-5.949l1.051-1.146 1.395.664-.745-1.374 1.051-1.146-1.511.297-.745-1.373-.189 1.558-1.512.297 1.394.665zm10.932 7.534l.403-2.541 2.495-.394-2.245-1.177.405-2.54-1.793 1.813-2.245-1.177 1.139 2.298-1.793 1.813 2.496-.393zm-2.443-8.57l1.241-1.259 1.557.813-.791-1.592 1.24-1.259-1.728.276-.792-1.592-.278 1.762-1.729.275 1.559.814z"/>
        </g>
      </g>
    </g>
  </g>
</svg>
